<svg id="eJV74KkfUpD1" xmlns="http://www.w3.org/2000/svg" xmlns:xlink="http://www.w3.org/1999/xlink" viewBox="0 0 2048 331" shape-rendering="geometricPrecision" text-rendering="geometricPrecision" project-id="e4c2775a308642f785c8006e2d56b9d1" export-id="cd8f5475974742aba99009454a2851e4" cached="false"><path d="M156,27h30l25,5l19,7l15,8l11,8l13,12l10,12l10,16l8,19l5,17l2,10l2,21v14l-1,11-1,2v7l-2,7-2,11-6,17-8,16-9,14-8,10-16,16-13,9-8,5-11,5-13,5-10,3-7,2h-7l-7,2h-20l-10-1-3-1-9-1-16-4-15-6-15-8-12-9-12-11-9-10-11-18-6-12-5-14-5-22-1-9v-34l1-6l2-13l2-9l9-24l8-15L62,75L80,57l13-9l15-8l20-7l16-4l12-2ZM137,56l-13,6-10,7-9,11-8,15-5,13-3,12-2,6v7l-2,7v39l2,11l3,17l6,20l6,13l8,14l11,14l12,10l17,9l15,4h21l11-2l9-4l9-6l12-12l9-15l5-13l4-17l3-20v-34l-2-16-4-19-6-18-6-13-8-13-9-11-8-7-9-7-11-6-16-4h-22l-10,2Z" fill="#1d3852"/><path d="M1160,27l6,2l4,6v240l16-5l6,1l5,10l1,4-3,5-6,4-10,4-8,4-10,4-5,3h-4v2l-8,3-9,4-6-2-4-6v-17l-9,9-10,7-8,4h-4v2l-8,1-5,2h-18l-6-2-9-2-14-7-9-7-7-7-11-18-7-21-2-9v-10l-1-1-1-7v-21l3-16l4-15l8-16l7-10l9-11l13-10l10-6l11-4l7-2l12-2h9l15,2l12,4l9,5v-57l-16,7-7-1-3-4-3-7l1-7l5-4l30-13l25-11l3-1Zm-94,116l-7,7-6,8-5,14-3,13l1,40l1,6l3,15l6,15l7,10l10,9l11,4l6,1l11-3l14-9l7-8l3-6v-55l-1-21-6-18-9-14-7-6-13-7h-11l-12,5Z" fill="#1d3852"/><path d="M1877,27l6,2l4,4l1,2l1,105l7-8l12-9l8-4l9-3l10-2h9l16,3l15,6l11,8l10,11l8,13l6,15l4,15l2,15v29l-3,15-3,9-5,13-6,11-9,12-11,11-14,9-10,4-10,3-9,2h-12l-7-1-3-1-9-2-13-5-10-6-12-11-2-1v19l-4,4h-17l-4-3-1-221l1-21-16,6-7-1-4-5-2-5v-7l4-4l38-17l21-9Zm37,122l-9,5-8,7-9,11v77l5,16l8,14l8,8l12,6h16l4-1l11-7l4-5l7-14l4-16v-42l-3-16-6-18-7-12-8-8-8-4-13-2-8,1Z" fill="#1d3852"/><path d="M883,114h11l16,2l20,7l13,7l11,9l7,8l9,14l6,14l4,13l2,12v32l-2,8-2,9-5,15-7,13-8,10-12,12-13,8-8,4-12,3-4,2h-6l-5,2h-18l-9-2-12-2-15-6-14-9-10-9-8-10-8-14-7-21-3-16v-27l3-16l5-15l7-14l7-10l14-14l13-8l11-5l14-4l15-2Zm-2,25l-7,1-9,5-7,7-7,12-4,14-2,5v36l1,14l5,22l6,14l7,11l8,7l12,6h11l10-2l8-5l7-8l5-9l4-13l3-17v-24l-2-19-2-10-4-13-8-16-8-9-11-7-9-1v-2h-6l-1,1Z" fill="#1d3852"/><path d="M0,0L5,2L9,6l1,107l7-8l9-7l12-6l14-4l6-1h12l12,3l9,4l11,8l6,8l5,11l3,12v131h23l3,2l1,3v14l-4,4h-90l-5-4v-14l4-5h23L70,142l-5-12-7-6-8-2-13,1-12,6-10,9-5,6v119l22,1l3,2l1,3v14l-4,4h-90l-6-3-1-3v-8l3-7l3-2h23L-37,42l-14,6h-6l-4-5-4-10l3-6l24-11L-8,3L0,0Z" transform="translate(643 27)" fill="#1d3852"/><path d="M0,0h10L21,3L31,7l10,7l9,13l5,15l1,9v126h22l4,2l1,2v15l-3,3-3,1h-88l-5-5v-11l2-5l2-2l22-1L11,67l-1-1L8,51L4,43l-5-5-4-2-11-1-10,2-10,5-4,4h-2l-2,4-5,5-1,122h22l4,4v15l-3,3-2,1h-92l-4-5v-12l3-5l1-1h25v-135l-14,6-7-1-3-3-4-9l1-6l16-8L-74,6l10-4h8l5,4l1,2v16l9-9l13-8l7-3l8-2L0,0Z" transform="translate(1508 114)" fill="#1d3852"/><path d="M1284,114h13l18,4l13,5l10,6l8,7l9,13l5,12l3,11l1,13v11l-6,3h-116v16l4,16l5,13l8,12l7,7l11,6l14,3l20-1l12-5l10-8l7-11l6-13l3-7l3-2h6l6,4l4,5-2,11h-2l1,3-2,7-1,4h-2v5l-3,5-3,7-7,11-11,12-10,8-7,4-10,3-5,2h-6l-7,2h-11l-9-2-7-1-9-3-14-7-11-9-9-10-8-13-5-13-2-7-2-9-2-7v-36l3-14h2l-1-4l2-3l3-10l7-14l8-11l7-8l8-7l11-7l12-5l14-3l6-1Zm-12,28l-8,4-8,7-7,9-6,14h11l5-1l55-2-1-12-3-7-7-8-9-5h-19l-3,1Z" fill="#1d3852"/><path d="M0,0L6,2L9,6l1,3v255h23l3,4v15l-4,4h-90l-5-3-1-1v-14l5-5l23-1l1-222-15,7-8-1-4-6-2-5l1-7l5-4l32-14L-3,1L0,0Z" transform="translate(1780 27)" fill="#1d3852"/><path d="M0,0h7l4,4l1,37h32l4,2l2,5v13l-4,5h-35v128l4,8l1,1h8l6-2l8-7l7-7l7,1l6,12-1,7-11,12-4,5-13,10-15,6-6,1h-10l-13-4-8-6-4-5-3-5-3-10-2-14v-131h-20l-5-2-2-5l1-5l9-9l10-8l10-10l10-8l8-8L-4,3L0,0Z" transform="translate(518 77)" fill="#1d3852"/><path d="M0,0L7,3l3,4L9,21L4,41L2,43l-4,1h-27l-14,7-7,9-2,4-1,113h26l4,4l1,3v11l-4,4-3,1h-94l-4-4v-14l2-4l2-1l24-1l1-133-14,5h-7l-4-5-3-6v-8l19-9L-66,2l2-1h6l6,5l1,7-1,5v6l8-10l9-7l8-3l9-2L0,0Z" transform="translate(445 114)" fill="#1d3852"/><path d="M0,0h7l4,4v37h33l5,3l1,3v15l-4,4h-35l1,129l3,7l1,1h11l9-6l8-9l6-1l5,5l4,10-4,8-7,7-7,8-10,8-5,3-10,3-7,2h-11l-11-3-10-7-6-9-4-12-1-7v-137h-21l-5-3-2-7l7-8l13-11l7-7l11-9l7-7L-6,5L0,0Z" transform="translate(1655 77)" fill="#1d3852"/></svg>
